<svg width="0" height="0" class="hidden">
  <symbol fill="none" xmlns="http://www.w3.org/2000/svg" viewBox="0 0 43 43" id="footer-icon">
    <path fill-rule="evenodd" clip-rule="evenodd" d="M10.3084 29.2309C10.3085 29.2309 10.3086 29.2308 10.3087 29.2308L30.4043 18.4658C31.3322 17.9688 32.455 18.641 32.455 19.6937V41.3857C32.455 42.1549 31.8313 42.7786 31.0621 42.7786H26.2819C26.0103 42.7786 25.4903 41.7004 25.4903 41.4288V32.5142C25.4903 31.7449 24.8667 31.1212 24.0974 31.1212H18.8043C18.035 31.1212 17.4114 31.7449 17.4114 32.5142V41.4288C17.4114 41.7004 16.8913 42.7786 16.6197 42.7786H11.4653C11.3921 42.7786 11.3187 42.7708 11.2494 42.7471C10.7015 42.5596 10.3076 42.0402 10.3076 41.4288V29.2313C10.3076 29.2311 10.3078 29.2309 10.308 29.2309H10.3081C10.3082 29.2309 10.3083 29.2309 10.3084 29.2309Z" fill="white"></path>
    <rect x="18.1076" y="31.818" width="6.68599" height="10.3076" rx="0.696457" stroke="white" stroke-width="1.39291"></rect>
    <mask id="path-3-inside-1_500_27" fill="white">
      <path fill-rule="evenodd" clip-rule="evenodd" d="M4.59668 2.15036C4.59668 1.14064 5.63744 0.466397 6.55895 0.87912L31.6314 12.1085C32.1325 12.3329 32.455 12.8307 32.455 13.3797V41.3858C32.455 42.1551 31.8313 42.7787 31.0621 42.7787H5.98959C5.22031 42.7787 4.59668 42.1551 4.59668 41.3858V12.4773V2.15036Z"></path>
    </mask>
    <path d="M32.2008 10.8372L7.12831 -0.392117L5.98959 2.15036L31.0621 13.3797L32.2008 10.8372ZM31.0621 13.3797V41.3858H33.8479V13.3797H31.0621ZM31.0621 41.3858H5.98959V44.1716H31.0621V41.3858ZM5.98959 41.3858V12.4773H3.20377V41.3858H5.98959ZM3.20377 2.15036V12.4773H5.98959V2.15036H3.20377ZM5.98959 41.3858H5.98959H3.20377C3.20377 42.9244 4.45102 44.1716 5.98959 44.1716V41.3858ZM31.0621 41.3858V44.1716C32.6006 44.1716 33.8479 42.9244 33.8479 41.3858H31.0621ZM7.12831 -0.392117C5.28528 -1.21756 3.20377 0.13093 3.20377 2.15036H5.98959L5.98959 2.15036L7.12831 -0.392117ZM31.0621 13.3797H33.8479C33.8479 12.2817 33.2029 11.2861 32.2008 10.8372L31.0621 13.3797Z" fill="white" mask="url(#path-3-inside-1_500_27)"></path>
    <mask id="path-5-inside-2_500_27" fill="white">
      <path fill-rule="evenodd" clip-rule="evenodd" d="M15.2001 26.6103C13.923 27.2944 14.4091 29.231 15.8578 29.231H36.7731C37.5424 29.231 38.166 28.6074 38.166 27.8381V16.6341C38.166 15.5814 37.0433 14.9092 36.1154 15.4063L15.2001 26.6103ZM10.3077 30.624C10.3077 29.8547 10.9314 29.2311 11.7006 29.2311H36.7731C37.5424 29.2311 38.166 29.8547 38.166 30.624V41.429C38.166 42.1983 37.5424 42.8219 36.7731 42.8219H11.7006C10.9314 42.8219 10.3077 42.1983 10.3077 41.429V30.624Z"></path>
    </mask>
    <path d="M36.1154 15.4063L36.7731 16.6341L36.1154 15.4063ZM36.7731 30.624H15.8578V27.8381H36.7731V30.624ZM39.5589 16.6341V27.8381H36.7731V16.6341H39.5589ZM14.5423 25.3824L35.4576 14.1784L36.7731 16.6341L15.8578 27.8381L14.5423 25.3824ZM36.7731 30.624H11.7006V27.8382H36.7731V30.624ZM36.7731 41.429V30.624H39.5589V41.429H36.7731ZM11.7006 41.429H36.7731V44.2149H11.7006V41.429ZM11.7006 30.624V41.429H8.91481V30.624H11.7006ZM11.7006 44.2149C10.1621 44.2149 8.91481 42.9676 8.91481 41.429H11.7006V44.2149ZM39.5589 41.429C39.5589 42.9676 38.3117 44.2149 36.7731 44.2149V41.429H36.7731H39.5589ZM11.7006 30.624H11.7006H8.91481C8.91481 29.0854 10.1621 27.8382 11.7006 27.8382V30.624ZM36.7731 27.8382C38.3117 27.8382 39.5589 29.0854 39.5589 30.624H36.7731V30.624V27.8382ZM36.7731 16.6341L36.7731 16.6341L35.4576 14.1784C37.3135 13.1843 39.5589 14.5288 39.5589 16.6341H36.7731ZM15.8578 30.624C12.9604 30.624 11.9883 26.7506 14.5423 25.3824L15.8578 27.8381C15.8466 27.8441 15.8408 27.8484 15.8388 27.85C15.8369 27.8515 15.8375 27.8512 15.8397 27.8487C15.8419 27.8463 15.8446 27.8429 15.8472 27.8386C15.8498 27.8344 15.8518 27.8304 15.8532 27.8268C15.8561 27.8196 15.8558 27.8168 15.8556 27.8197C15.8555 27.8231 15.8557 27.8297 15.8578 27.8381C15.8599 27.8465 15.8628 27.8525 15.8646 27.8553C15.8661 27.8578 15.865 27.8552 15.8591 27.8503C15.8562 27.8478 15.8525 27.8452 15.8482 27.8427C15.8439 27.8402 15.8399 27.8384 15.8369 27.8373C15.8338 27.8362 15.833 27.8362 15.8355 27.8367C15.8379 27.8371 15.8451 27.8381 15.8578 27.8381V30.624ZM36.7731 27.8381V27.8381H39.5589C39.5589 29.3767 38.3117 30.624 36.7731 30.624V27.8381Z" fill="white" mask="url(#path-5-inside-2_500_27)"></path>
  </symbol>
  <symbol fill="none" xmlns="http://www.w3.org/2000/svg" viewBox="0 0 18 18" id="instagram">
    <path d="M8.9998 7.21019C8.01317 7.21019 7.20979 8.01317 7.20979 8.9998C7.20979 9.98683 8.01317 10.7902 8.9998 10.7902C9.98683 10.7902 10.7898 9.98683 10.7898 8.9998C10.7898 8.01317 9.98683 7.21019 8.9998 7.21019ZM8.9998 7.21019C8.01317 7.21019 7.20979 8.01317 7.20979 8.9998C7.20979 9.98683 8.01317 10.7902 8.9998 10.7902C9.98683 10.7902 10.7898 9.98683 10.7898 8.9998C10.7898 8.01317 9.98683 7.21019 8.9998 7.21019ZM11.9818 4.29175H6.01817C5.06629 4.29175 4.29175 5.06629 4.29175 6.01817V11.9818C4.29175 12.9337 5.06629 13.7082 6.01817 13.7082H11.9818C12.9337 13.7082 13.7082 12.9337 13.7082 11.9818V6.01817C13.7082 5.06629 12.9337 4.29175 11.9818 4.29175ZM8.9998 12.0999C7.29076 12.0999 5.90007 10.7092 5.90007 8.9998C5.90007 7.29076 7.29076 5.90007 8.9998 5.90007C10.7092 5.90007 12.0999 7.29076 12.0999 8.9998C12.0999 10.7092 10.7092 12.0999 8.9998 12.0999ZM12.1995 6.54111C11.795 6.54111 11.466 6.2121 11.466 5.80765C11.466 5.4032 11.795 5.07419 12.1995 5.07419C12.6039 5.07419 12.9329 5.4032 12.9329 5.80765C12.9329 6.2121 12.6039 6.54111 12.1995 6.54111ZM8.9998 7.21019C8.01317 7.21019 7.20979 8.01317 7.20979 8.9998C7.20979 9.98683 8.01317 10.7902 8.9998 10.7902C9.98683 10.7902 10.7898 9.98683 10.7898 8.9998C10.7898 8.01317 9.98683 7.21019 8.9998 7.21019ZM11.9818 4.29175H6.01817C5.06629 4.29175 4.29175 5.06629 4.29175 6.01817V11.9818C4.29175 12.9337 5.06629 13.7082 6.01817 13.7082H11.9818C12.9337 13.7082 13.7082 12.9337 13.7082 11.9818V6.01817C13.7082 5.06629 12.9337 4.29175 11.9818 4.29175ZM8.9998 12.0999C7.29076 12.0999 5.90007 10.7092 5.90007 8.9998C5.90007 7.29076 7.29076 5.90007 8.9998 5.90007C10.7092 5.90007 12.0999 7.29076 12.0999 8.9998C12.0999 10.7092 10.7092 12.0999 8.9998 12.0999ZM12.1995 6.54111C11.795 6.54111 11.466 6.2121 11.466 5.80765C11.466 5.4032 11.795 5.07419 12.1995 5.07419C12.6039 5.07419 12.9329 5.4032 12.9329 5.80765C12.9329 6.2121 12.6039 6.54111 12.1995 6.54111ZM8.9998 7.21019C8.01317 7.21019 7.20979 8.01317 7.20979 8.9998C7.20979 9.98683 8.01317 10.7902 8.9998 10.7902C9.98683 10.7902 10.7898 9.98683 10.7898 8.9998C10.7898 8.01317 9.98683 7.21019 8.9998 7.21019ZM0 0V18H18V0H0ZM15.018 11.9818C15.018 13.6561 13.6561 15.018 11.9818 15.018H6.01817C4.34389 15.018 2.98203 13.6561 2.98203 11.9818V6.01817C2.98203 4.34389 4.34389 2.98203 6.01817 2.98203H11.9818C13.6561 2.98203 15.018 4.34389 15.018 6.01817V11.9818ZM11.9818 4.29175H6.01817C5.06629 4.29175 4.29175 5.06629 4.29175 6.01817V11.9818C4.29175 12.9337 5.06629 13.7082 6.01817 13.7082H11.9818C12.9337 13.7082 13.7082 12.9337 13.7082 11.9818V6.01817C13.7082 5.06629 12.9337 4.29175 11.9818 4.29175ZM8.9998 12.0999C7.29076 12.0999 5.90007 10.7092 5.90007 8.9998C5.90007 7.29076 7.29076 5.90007 8.9998 5.90007C10.7092 5.90007 12.0999 7.29076 12.0999 8.9998C12.0999 10.7092 10.7092 12.0999 8.9998 12.0999ZM12.1995 6.54111C11.795 6.54111 11.466 6.2121 11.466 5.80765C11.466 5.4032 11.795 5.07419 12.1995 5.07419C12.6039 5.07419 12.9329 5.4032 12.9329 5.80765C12.9329 6.2121 12.6039 6.54111 12.1995 6.54111ZM8.9998 7.21019C8.01317 7.21019 7.20979 8.01317 7.20979 8.9998C7.20979 9.98683 8.01317 10.7902 8.9998 10.7902C9.98683 10.7902 10.7898 9.98683 10.7898 8.9998C10.7898 8.01317 9.98683 7.21019 8.9998 7.21019ZM8.9998 7.21019C8.01317 7.21019 7.20979 8.01317 7.20979 8.9998C7.20979 9.98683 8.01317 10.7902 8.9998 10.7902C9.98683 10.7902 10.7898 9.98683 10.7898 8.9998C10.7898 8.01317 9.98683 7.21019 8.9998 7.21019ZM8.9998 7.21019C8.01317 7.21019 7.20979 8.01317 7.20979 8.9998C7.20979 9.98683 8.01317 10.7902 8.9998 10.7902C9.98683 10.7902 10.7898 9.98683 10.7898 8.9998C10.7898 8.01317 9.98683 7.21019 8.9998 7.21019ZM11.9818 4.29175H6.01817C5.06629 4.29175 4.29175 5.06629 4.29175 6.01817V11.9818C4.29175 12.9337 5.06629 13.7082 6.01817 13.7082H11.9818C12.9337 13.7082 13.7082 12.9337 13.7082 11.9818V6.01817C13.7082 5.06629 12.9337 4.29175 11.9818 4.29175ZM8.9998 12.0999C7.29076 12.0999 5.90007 10.7092 5.90007 8.9998C5.90007 7.29076 7.29076 5.90007 8.9998 5.90007C10.7092 5.90007 12.0999 7.29076 12.0999 8.9998C12.0999 10.7092 10.7092 12.0999 8.9998 12.0999ZM12.1995 6.54111C11.795 6.54111 11.466 6.2121 11.466 5.80765C11.466 5.4032 11.795 5.07419 12.1995 5.07419C12.6039 5.07419 12.9329 5.4032 12.9329 5.80765C12.9329 6.2121 12.6039 6.54111 12.1995 6.54111ZM8.9998 7.21019C8.01317 7.21019 7.20979 8.01317 7.20979 8.9998C7.20979 9.98683 8.01317 10.7902 8.9998 10.7902C9.98683 10.7902 10.7898 9.98683 10.7898 8.9998C10.7898 8.01317 9.98683 7.21019 8.9998 7.21019ZM8.9998 7.21019C8.01317 7.21019 7.20979 8.01317 7.20979 8.9998C7.20979 9.98683 8.01317 10.7902 8.9998 10.7902C9.98683 10.7902 10.7898 9.98683 10.7898 8.9998C10.7898 8.01317 9.98683 7.21019 8.9998 7.21019ZM8.9998 7.21019C8.01317 7.21019 7.20979 8.01317 7.20979 8.9998C7.20979 9.98683 8.01317 10.7902 8.9998 10.7902C9.98683 10.7902 10.7898 9.98683 10.7898 8.9998C10.7898 8.01317 9.98683 7.21019 8.9998 7.21019ZM11.9818 4.29175H6.01817C5.06629 4.29175 4.29175 5.06629 4.29175 6.01817V11.9818C4.29175 12.9337 5.06629 13.7082 6.01817 13.7082H11.9818C12.9337 13.7082 13.7082 12.9337 13.7082 11.9818V6.01817C13.7082 5.06629 12.9337 4.29175 11.9818 4.29175ZM8.9998 12.0999C7.29076 12.0999 5.90007 10.7092 5.90007 8.9998C5.90007 7.29076 7.29076 5.90007 8.9998 5.90007C10.7092 5.90007 12.0999 7.29076 12.0999 8.9998C12.0999 10.7092 10.7092 12.0999 8.9998 12.0999ZM12.1995 6.54111C11.795 6.54111 11.466 6.2121 11.466 5.80765C11.466 5.4032 11.795 5.07419 12.1995 5.07419C12.6039 5.07419 12.9329 5.4032 12.9329 5.80765C12.9329 6.2121 12.6039 6.54111 12.1995 6.54111ZM8.9998 7.21019C8.01317 7.21019 7.20979 8.01317 7.20979 8.9998C7.20979 9.98683 8.01317 10.7902 8.9998 10.7902C9.98683 10.7902 10.7898 9.98683 10.7898 8.9998C10.7898 8.01317 9.98683 7.21019 8.9998 7.21019Z" fill="#87AD40"></path>
  </symbol>
  <symbol fill="none" xmlns="http://www.w3.org/2000/svg" viewBox="0 0 35 43" id="logo">
    <path fill-rule="evenodd" clip-rule="evenodd" d="M7.04286 28.837L26.4043 18.4654C27.3322 17.9683 28.455 18.6405 28.455 19.6932V41.3856C28.455 42.1549 27.8313 42.7786 27.0621 42.7786H22.282C22.0104 42.7786 21.4904 41.7004 21.4904 41.4288V41.4288V32.5141C21.4904 31.7448 20.8667 31.1212 20.0975 31.1212H14.8044C14.0351 31.1212 13.4115 31.7448 13.4115 32.5141V41.4288V41.4288C13.4115 41.7004 12.8914 42.7786 12.6198 42.7786H7.46559C7.39246 42.7786 7.31914 42.7708 7.24994 42.7471C6.70182 42.5598 6.30768 42.0403 6.30768 41.4287V30.0648C6.30768 29.5513 6.59021 29.0795 7.04286 28.837Z" fill="#87AD40"></path>
    <rect x="14.1076" y="31.8176" width="6.68599" height="10.3076" rx="0.696457" stroke="#000B31" stroke-width="1.39291"></rect>
    <mask id="path-3-inside-1_500_198" fill="white">
      <path fill-rule="evenodd" clip-rule="evenodd" d="M0.596692 2.15011C0.596692 1.1404 1.63745 0.466151 2.55896 0.878874L27.6314 12.1082C28.1325 12.3326 28.455 12.8304 28.455 13.3795V41.3856C28.455 42.1549 27.8314 42.7785 27.0621 42.7785H1.98961C1.22032 42.7785 0.596692 42.1549 0.596692 41.3856V12.4771V2.15011Z"></path>
    </mask>
    <path d="M27.6314 12.1083L28.2008 10.837L27.6314 12.1083ZM28.2008 10.837L3.12831 -0.3923L1.98959 2.15017L27.0621 13.3795L28.2008 10.837ZM27.0621 13.3795V41.3856H29.8479V13.3795H27.0621ZM27.0621 41.3856H1.98959V44.1715H27.0621V41.3856ZM1.98959 41.3856V12.4771H-0.796235V41.3856H1.98959ZM-0.796235 2.15017V12.4771H1.98959V2.15017H-0.796235ZM1.98959 41.3856H1.98959H-0.796235C-0.796235 42.9242 0.451024 44.1715 1.98959 44.1715V41.3856ZM27.0621 41.3856V44.1715C28.6006 44.1715 29.8479 42.9242 29.8479 41.3856H27.0621ZM3.12831 -0.3923C1.28528 -1.21775 -0.796235 0.130747 -0.796235 2.15017H1.98959L1.98959 2.15017L3.12831 -0.3923ZM27.0621 13.3795H29.8479C29.8479 12.2815 29.2029 11.2859 28.2008 10.837L27.0621 13.3795Z" fill="#000B31" mask="url(#path-3-inside-1_500_198)"></path>
    <mask id="path-5-inside-2_500_198" fill="white">
      <path fill-rule="evenodd" clip-rule="evenodd" d="M34.166 16.6339C34.166 15.5812 33.0433 14.909 32.1153 15.406L7.04288 28.837C6.59023 29.0795 6.3077 29.5513 6.3077 30.0648V41.4287C6.3077 42.198 6.93133 42.8216 7.70061 42.8216H32.7731C33.5424 42.8216 34.166 42.198 34.166 41.4287V29.2308V29.2308V16.6339Z"></path>
    </mask>
    <path d="M32.1154 15.4061L32.7731 16.6339L32.1154 15.4061ZM7.0429 28.837L7.70064 30.0649L7.0429 28.837ZM6.38517 27.6092L31.4576 14.1782L32.7731 16.6339L7.70064 30.0649L6.38517 27.6092ZM7.70064 30.0649V41.4288H4.91481V30.0649H7.70064ZM7.70064 41.4288H32.7731V44.2146H7.70064V41.4288ZM32.7731 41.4288V29.2309H35.5589V41.4288H32.7731ZM32.7731 29.2309V29.2308H35.5589V29.2309H32.7731ZM35.5589 16.6339V29.2308H32.7731V16.6339H35.5589ZM32.7731 41.4288H32.7731H35.5589C35.5589 42.9673 34.3117 44.2146 32.7731 44.2146V41.4288ZM7.70064 41.4288V44.2146C6.16207 44.2146 4.91481 42.9673 4.91481 41.4288H7.70064ZM31.4576 14.1782C33.3135 13.1841 35.5589 14.5286 35.5589 16.6339H32.7731L32.7731 16.6339L31.4576 14.1782ZM7.70064 30.0649H4.91481C4.91481 29.0379 5.47986 28.0941 6.38517 27.6092L7.70064 30.0649Z" fill="#000B31" mask="url(#path-5-inside-2_500_198)"></path>
  </symbol>
  <symbol fill="none" xmlns="http://www.w3.org/2000/svg" viewBox="0 0 35 43" id="logo-header">
    <path fill-rule="evenodd" clip-rule="evenodd" d="M7.0428 28.837L26.4043 18.4653C27.3322 17.9683 28.4549 18.6405 28.4549 19.6932V41.3856C28.4549 42.1549 27.8313 42.7786 27.062 42.7786H22.282C22.0104 42.7786 21.4903 41.7004 21.4903 41.4288V32.5141C21.4903 31.7448 20.8667 31.1212 20.0974 31.1212H14.8043C14.035 31.1212 13.4114 31.7448 13.4114 32.5141V41.4288C13.4114 41.7004 12.8913 42.7786 12.6197 42.7786H7.46552C7.3924 42.7786 7.31907 42.7708 7.24987 42.7471C6.70175 42.5598 6.30762 42.0403 6.30762 41.4287V30.0648C6.30762 29.5513 6.59015 29.0795 7.0428 28.837Z" fill="#87AD40"></path>
    <rect x="14.1076" y="31.8176" width="6.68599" height="10.3076" rx="0.696457" stroke="#000B31" stroke-width="1.39291"></rect>
    <mask id="path-3-inside-1_500_198" fill="white">
      <path fill-rule="evenodd" clip-rule="evenodd" d="M0.59668 2.15017C0.59668 1.14046 1.63744 0.466214 2.55895 0.878937L27.6314 12.1083C28.1325 12.3327 28.455 12.8305 28.455 13.3795V41.3856C28.455 42.1549 27.8313 42.7786 27.0621 42.7786H1.98959C1.22031 42.7786 0.59668 42.1549 0.59668 41.3856V12.4771V2.15017Z"></path>
    </mask>
    <path d="M27.6314 12.1083L28.2008 10.837L27.6314 12.1083ZM28.2008 10.837L3.12831 -0.3923L1.98959 2.15017L27.0621 13.3795L28.2008 10.837ZM27.0621 13.3795V41.3856H29.8479V13.3795H27.0621ZM27.0621 41.3856H1.98959V44.1715H27.0621V41.3856ZM1.98959 41.3856V12.4771H-0.796235V41.3856H1.98959ZM-0.796235 2.15017V12.4771H1.98959V2.15017H-0.796235ZM1.98959 41.3856H1.98959H-0.796235C-0.796235 42.9242 0.451024 44.1715 1.98959 44.1715V41.3856ZM27.0621 41.3856V44.1715C28.6006 44.1715 29.8479 42.9242 29.8479 41.3856H27.0621ZM3.12831 -0.3923C1.28528 -1.21775 -0.796235 0.130747 -0.796235 2.15017H1.98959L1.98959 2.15017L3.12831 -0.3923ZM27.0621 13.3795H29.8479C29.8479 12.2815 29.2029 11.2859 28.2008 10.837L27.0621 13.3795Z" fill="#000B31" mask="url(#path-3-inside-1_500_198)"></path>
    <mask id="path-5-inside-2_500_198" fill="white">
      <path fill-rule="evenodd" clip-rule="evenodd" d="M34.166 16.6339C34.166 15.5813 33.0433 14.909 32.1154 15.4061L7.0429 28.837C6.59025 29.0795 6.30772 29.5514 6.30772 30.0649V41.4288C6.30772 42.1981 6.93135 42.8217 7.70064 42.8217H32.7731C33.5424 42.8217 34.166 42.1981 34.166 41.4288V29.2309V29.2308V16.6339Z"></path>
    </mask>
    <path d="M32.1154 15.4061L32.7731 16.6339L32.1154 15.4061ZM7.0429 28.837L7.70064 30.0649L7.0429 28.837ZM6.38517 27.6092L31.4576 14.1782L32.7731 16.6339L7.70064 30.0649L6.38517 27.6092ZM7.70064 30.0649V41.4288H4.91481V30.0649H7.70064ZM7.70064 41.4288H32.7731V44.2146H7.70064V41.4288ZM32.7731 41.4288V29.2309H35.5589V41.4288H32.7731ZM32.7731 29.2309V29.2308H35.5589V29.2309H32.7731ZM35.5589 16.6339V29.2308H32.7731V16.6339H35.5589ZM32.7731 41.4288H32.7731H35.5589C35.5589 42.9673 34.3117 44.2146 32.7731 44.2146V41.4288ZM7.70064 41.4288V44.2146C6.16207 44.2146 4.91481 42.9673 4.91481 41.4288H7.70064ZM31.4576 14.1782C33.3135 13.1841 35.5589 14.5286 35.5589 16.6339H32.7731L32.7731 16.6339L31.4576 14.1782ZM7.70064 30.0649H4.91481C4.91481 29.0379 5.47986 28.0941 6.38517 27.6092L7.70064 30.0649Z" fill="#000B31" mask="url(#path-5-inside-2_500_198)"></path>
  </symbol>
  <symbol fill="none" xmlns="http://www.w3.org/2000/svg" viewBox="0 0 40 40" id="menu">
    <rect x="6.66699" y="6.66669" width="10" height="10" rx="1" stroke="#87AD40" stroke-width="2" stroke-linejoin="round"></rect>
    <rect x="6.66699" y="23.3333" width="10" height="10" rx="1" stroke="#87AD40" stroke-width="2" stroke-linejoin="round"></rect>
    <rect x="23.333" y="23.3333" width="10" height="10" rx="1" stroke="#87AD40" stroke-width="2" stroke-linejoin="round"></rect>
    <rect x="23.333" y="6.66669" width="10" height="10" rx="1" stroke="#87AD40" stroke-width="2" stroke-linejoin="round"></rect>
  </symbol>
  <symbol fill="none" xmlns="http://www.w3.org/2000/svg" viewBox="0 0 18 18" id="phone">
    <path d="M2.67962 1.32038L3.29289 0.707107C3.68342 0.316583 4.31658 0.316582 4.70711 0.707106L7.29289 3.29289C7.68342 3.68342 7.68342 4.31658 7.29289 4.70711L5.50048 6.49952C5.2016 6.7984 5.1275 7.255 5.31653 7.63307C6.40929 9.81858 8.18142 11.5907 10.3669 12.6835C10.745 12.8725 11.2016 12.7984 11.5005 12.4995L13.2929 10.7071C13.6834 10.3166 14.3166 10.3166 14.7071 10.7071L17.2929 13.2929C17.6834 13.6834 17.6834 14.3166 17.2929 14.7071L16.6796 15.3204C14.5683 17.4317 11.2257 17.6693 8.83698 15.8777L7.62857 14.9714C5.88504 13.6638 4.33622 12.115 3.02857 10.3714L2.12226 9.16302C0.330722 6.7743 0.568269 3.43173 2.67962 1.32038Z" fill="#636A85"></path>
  </symbol>
  <symbol fill="none" xmlns="http://www.w3.org/2000/svg" viewBox="0 0 37 41" id="play">
    <path d="M34.5 16.1699C37.8333 18.0944 37.8333 22.9056 34.5 24.8301L8.25001 39.9856C4.91667 41.9101 0.749998 39.5044 0.749998 35.6554L0.749999 5.34456C0.75 1.49556 4.91667 -0.910074 8.25 1.01443L34.5 16.1699Z" fill="#87AD40"></path>
  </symbol>
  <symbol fill="none" xmlns="http://www.w3.org/2000/svg" viewBox="0 0 40 40" id="play-popup">
    <rect width="40" height="40" rx="10" fill="#87AD40"></rect>
    <path d="M25.1723 18.2111L17.0062 14.1281C15.5102 13.3801 13.75 14.468 13.75 16.1406V23.8594C13.75 25.532 15.5102 26.6199 17.0062 25.8719L25.1723 21.7888C26.6464 21.0518 26.6464 18.9482 25.1723 18.2111Z" fill="white"></path>
  </symbol>
  <symbol fill="none" xmlns="http://www.w3.org/2000/svg" viewBox="0 0 40 40" id="slider-next">
    <rect x="-0.5" y="0.5" width="39" height="39" rx="19.5" transform="matrix(-1 0 0 1 39 0)" stroke="#87AD40"></rect>
    <path d="M23.7071 19.2929C24.0976 19.6834 24.0976 20.3166 23.7071 20.7071L17.3431 27.0711C16.9526 27.4616 16.3195 27.4616 15.9289 27.0711C15.5384 26.6805 15.5384 26.0474 15.9289 25.6569L21.5858 20L15.9289 14.3431C15.5384 13.9526 15.5384 13.3195 15.9289 12.9289C16.3195 12.5384 16.9526 12.5384 17.3431 12.9289L23.7071 19.2929ZM22 19H23V21H22V19Z" fill="#87AD40"></path>
  </symbol>
  <symbol fill="none" xmlns="http://www.w3.org/2000/svg" viewBox="0 0 40 40" id="slider-prev">
    <rect x="0.5" y="0.5" width="39" height="39" rx="19.5" stroke="#87AD40"></rect>
    <path d="M16.2929 19.2929C15.9024 19.6834 15.9024 20.3166 16.2929 20.7071L22.6569 27.0711C23.0474 27.4616 23.6805 27.4616 24.0711 27.0711C24.4616 26.6805 24.4616 26.0474 24.0711 25.6569L18.4142 20L24.0711 14.3431C24.4616 13.9526 24.4616 13.3195 24.0711 12.9289C23.6805 12.5384 23.0474 12.5384 22.6569 12.9289L16.2929 19.2929ZM18 19H17V21H18V19Z" fill="#87AD40"></path>
  </symbol>
  <symbol fill="none" xmlns="http://www.w3.org/2000/svg" viewBox="0 0 220 332" id="Union">
    <mask id="path-1-inside-1_309_542" fill="white">
      <path fill-rule="evenodd" clip-rule="evenodd" d="M0 11.6956C0 3.74034 8.19987 -1.57186 15.4602 1.67988L213 90.153C216.947 91.9211 219.488 95.8432 219.488 100.169V320.822C219.488 326.883 214.575 331.796 208.514 331.796H10.9744C4.91341 331.796 0 326.883 0 320.822V93.0591V11.6956Z"></path>
    </mask>
    <path d="M15.4602 1.67988L19.946 -8.33587L15.4602 1.67988ZM213 90.153L208.514 100.169L213 90.153ZM217.485 80.1372L19.946 -8.33587L10.9744 11.6956L208.514 100.169L217.485 80.1372ZM208.514 100.169V320.822H230.463V100.169H208.514ZM208.514 320.822H10.9744V342.77H208.514V320.822ZM10.9744 320.822V93.0591H-10.9744V320.822H10.9744ZM-10.9744 11.6956V93.0591H10.9744V11.6956H-10.9744ZM10.9744 320.822H10.9744H-10.9744C-10.9744 332.944 -1.14758 342.77 10.9744 342.77V320.822ZM208.514 320.822V342.77C220.636 342.77 230.463 332.944 230.463 320.822H208.514ZM19.946 -8.33587C5.42534 -14.8393 -10.9744 -4.21495 -10.9744 11.6956H10.9744C10.9744 11.6704 10.976 11.6566 10.9765 11.6527C10.977 11.6486 10.977 11.6506 10.9753 11.6572C10.9736 11.6636 10.9709 11.6718 10.9673 11.6807C10.9637 11.6896 10.9598 11.6974 10.9562 11.7038C10.9489 11.7168 10.9448 11.7202 10.9482 11.7166C10.9499 11.7148 10.9531 11.7117 10.9578 11.7078C10.9625 11.7039 10.9681 11.6997 10.9744 11.6956C10.9807 11.6916 10.9868 11.6882 10.9923 11.6855C10.9978 11.6828 11.0019 11.6811 11.0043 11.6803C11.009 11.6787 11.0041 11.681 10.9894 11.6823C10.982 11.683 10.9733 11.6834 10.9638 11.683C10.9541 11.6827 10.9456 11.6818 10.939 11.6807C10.9323 11.6796 10.9305 11.6788 10.9344 11.68C10.9382 11.6811 10.9514 11.6853 10.9744 11.6956L19.946 -8.33587ZM208.514 100.169H230.463C230.463 91.5176 225.381 83.6734 217.485 80.1372L208.514 100.169Z" fill="#87AD40" mask="url(#path-1-inside-1_309_542)"></path>
  </symbol>
  <symbol fill="none" xmlns="http://www.w3.org/2000/svg" viewBox="0 0 18 18" id="02.youtube">
    <path fill-rule="evenodd" clip-rule="evenodd" d="M3.22321 17.693C7.06458 18.1028 10.9387 18.1028 14.78 17.693C15.5259 17.6132 16.2218 17.2801 16.7519 16.7493C17.2819 16.2186 17.614 15.5221 17.6928 14.7762C18.1026 10.9348 18.1026 7.06074 17.6928 3.21936C17.6129 2.47352 17.2799 1.77756 16.7491 1.24753C16.2183 0.717497 15.5219 0.385411 14.7759 0.306637C10.9346 -0.103189 7.06049 -0.103189 3.21912 0.306637C2.47327 0.386458 1.77732 0.719521 1.24729 1.2503C0.717253 1.78108 0.385167 2.4775 0.306393 3.22345C-0.103433 7.06483 -0.103433 10.9389 0.306393 14.7803C0.386214 15.5261 0.719277 16.2221 1.25005 16.7521C1.78083 17.2821 2.47725 17.6142 3.22321 17.693ZM12.7068 5.08546C13.392 5.1816 14.1366 5.60092 14.3616 6.29331C14.7123 8.08069 14.7123 9.91922 14.3616 11.7066C14.1386 12.4031 13.392 12.8183 12.7068 12.9144C10.2421 13.1763 7.75667 13.1763 5.29201 12.9144C4.60678 12.8183 3.86224 12.398 3.63724 11.7066C3.28645 9.91922 3.28645 8.08069 3.63724 6.29331C3.86019 5.59683 4.60678 5.1816 5.29201 5.08546C7.75667 4.82364 10.2421 4.82364 12.7068 5.08546ZM7.65349 6.84353V11.1554C8.26058 10.7822 8.85979 10.4143 9.45995 10.0458C10.0245 9.69909 10.5899 9.35191 11.1635 8.99944L7.65349 6.84353Z" fill="#87AD40"></path>
  </symbol>
  <symbol fill="none" xmlns="http://www.w3.org/2000/svg" viewBox="0 0 24 24" id="Arrow">
    <path d="M4 24C1.79086 24 -7.8281e-08 22.2091 -1.74846e-07 20L-8.74228e-07 4C-9.70792e-07 1.79086 1.79086 -7.8281e-08 4 -1.74846e-07L20 -8.74228e-07C22.2091 -9.70792e-07 24 1.79086 24 4L24 20C24 22.2091 22.2091 24 20 24L4 24Z" fill="#87AD40"></path>
    <path d="M17 12L17.3363 12.37L17.7433 12L17.3363 11.63L17 12ZM6 11.5C5.72386 11.5 5.5 11.7239 5.5 12C5.5 12.2761 5.72386 12.5 6 12.5V11.5ZM12.9363 16.37L17.3363 12.37L16.6637 11.63L12.2637 15.63L12.9363 16.37ZM17.3363 11.63L12.9363 7.63003L12.2637 8.36997L16.6637 12.37L17.3363 11.63ZM17 11.5H6V12.5H17V11.5Z" fill="white"></path>
  </symbol>
  <symbol fill="none" xmlns="http://www.w3.org/2000/svg" viewBox="0 0 18 18" id="close-menu">
    <path fill-rule="evenodd" clip-rule="evenodd" d="M18 9C18 13.9706 13.9706 18 9 18C4.02944 18 0 13.9706 0 9C0 4.02944 4.02944 0 9 0C13.9706 0 18 4.02944 18 9ZM4.29289 13.7071C3.90237 13.3166 3.90237 12.6834 4.29289 12.2929L7.58579 9L4.29289 5.70711C3.90237 5.31658 3.90237 4.68342 4.29289 4.29289C4.68342 3.90237 5.31658 3.90237 5.70711 4.29289L9 7.58579L12.2929 4.29289C12.6834 3.90237 13.3166 3.90237 13.7071 4.29289C14.0976 4.68342 14.0976 5.31658 13.7071 5.70711L10.4142 9L13.7071 12.2929C14.0976 12.6834 14.0976 13.3166 13.7071 13.7071C13.3166 14.0976 12.6834 14.0976 12.2929 13.7071L9 10.4142L5.70711 13.7071C5.31658 14.0976 4.68342 14.0976 4.29289 13.7071Z" fill="white"></path>
  </symbol>
  <symbol fill="none" xmlns="http://www.w3.org/2000/svg" viewBox="0 0 18 18" id="close-popup">
       <path fill-rule="evenodd" clip-rule="evenodd" d="M18 9C18 13.9706 13.9706 18 9 18C4.02944 18 0 13.9706 0 9C0 4.02944 4.02944 0 9 0C13.9706 0 18 4.02944 18 9ZM4.29289 13.7071C3.90237 13.3166 3.90237 12.6834 4.29289 12.2929L7.58579 9L4.29289 5.70711C3.90237 5.31658 3.90237 4.68342 4.29289 4.29289C4.68342 3.90237 5.31658 3.90237 5.70711 4.29289L9 7.58579L12.2929 4.29289C12.6834 3.90237 13.3166 3.90237 13.7071 4.29289C14.0976 4.68342 14.0976 5.31658 13.7071 5.70711L10.4142 9L13.7071 12.2929C14.0976 12.6834 14.0976 13.3166 13.7071 13.7071C13.3166 14.0976 12.6834 14.0976 12.2929 13.7071L9 10.4142L5.70711 13.7071C5.31658 14.0976 4.68342 14.0976 4.29289 13.7071Z" fill="#545454"></path>
  </symbol>
  <symbol fill="none" xmlns="http://www.w3.org/2000/svg" viewBox="0 0 18 18" id="facebook">
    <path d="M0 0V18H9.5861V11.047H7.24274V8.20856H9.5861V5.82479C9.5861 4.09115 10.9915 2.68576 12.7251 2.68576H15.1749V5.23814H13.422C12.8711 5.23814 12.4245 5.68473 12.4245 6.2356V8.2086H15.1309L14.7569 11.047H12.4245V18H18V0H0Z" fill="#87AD40"></path>
  </symbol>
    <symbol fill="none" xmlns="http://www.w3.org/2000/svg" viewBox="0 0 30 30" id="tell">
    <rect width="30" height="30" rx="4" fill="#87AD40"></rect>
    <path d="M9.67962 7.32038L10.2929 6.70711C10.6834 6.31658 11.3166 6.31658 11.7071 6.70711L14.2929 9.29289C14.6834 9.68342 14.6834 10.3166 14.2929 10.7071L12.5005 12.4995C12.2016 12.7984 12.1275 13.255 12.3165 13.6331C13.4093 15.8186 15.1814 17.5907 17.3669 18.6835C17.745 18.8725 18.2016 18.7984 18.5005 18.4995L20.2929 16.7071C20.6834 16.3166 21.3166 16.3166 21.7071 16.7071L24.2929 19.2929C24.6834 19.6834 24.6834 20.3166 24.2929 20.7071L23.6796 21.3204C21.5683 23.4317 18.2257 23.6693 15.837 21.8777L14.6286 20.9714C12.885 19.6638 11.3362 18.115 10.0286 16.3714L9.12226 15.163C7.33072 12.7743 7.56827 9.43173 9.67962 7.32038Z" fill="white"></path>
  </symbol>
</svg>